<?xml version="1.0" encoding="UTF-8"?>
<svg xmlns="http://www.w3.org/2000/svg" version="1.1" viewBox="0 0 1024 1280">
  <!-- Generator: Adobe Illustrator 28.6.0, SVG Export Plug-In . SVG Version: 1.2.0 Build 709)  -->
  <g>
    <g id="Layer_1">
      <g>
        <path d="M978,628.8c-42.7-85.1-107.9-157-188.6-207.9-83-52.3-178.9-79.9-277.4-79.9s-194.4,27.6-277.4,79.9c-80.7,50.9-145.9,122.7-188.6,207.9l-5.6,11.2,5.6,11.2c42.7,85.1,107.9,157,188.6,207.9,83,52.3,178.9,79.9,277.4,79.9s194.5-27.6,277.4-79.9c80.7-50.9,145.9-122.7,188.6-207.9l5.6-11.2-5.6-11.2ZM512,889c-175.2,0-333.2-95.1-415.5-249,82.2-153.9,240.3-249,415.5-249s333.3,95.1,415.5,249c-82.2,153.9-240.3,249-415.5,249Z"/>
        <path d="M512,479c-88.8,0-161,72.2-161,161s72.2,161,161,161,161-72.2,161-161-72.2-161-161-161ZM512,751c-61.2,0-111-49.8-111-111s49.8-111,111-111,111,49.8,111,111-49.8,111-111,111Z"/>
      </g>
    </g>
  </g>
</svg>