<?xml version="1.0" encoding="UTF-8"?>
<svg xmlns="http://www.w3.org/2000/svg" version="1.1" viewBox="0 0 100 125">
  <!-- Generator: Adobe Illustrator 28.6.0, SVG Export Plug-In . SVG Version: 1.2.0 Build 709)  -->
  <g>
    <g id="Layer_1">
      <path d="M50,102.1c-1.3,0-4.6,0-37.6-36-4.8-4.8-7.4-11.1-7.4-17.9s2.6-13.1,7.4-17.9c9.9-9.9,25.9-9.9,35.8,0,.6.6,1.2,1.3,1.8,2,.6-.7,1.2-1.4,1.8-2,9.9-9.9,25.9-9.9,35.8,0,4.8,4.8,7.4,11.1,7.4,17.9s-2.6,13.1-7.4,17.9c-33,36-36.3,36-37.6,36ZM50.6,96.7h0ZM49.4,96.7h0ZM30.3,28.4c-5.1,0-10.2,1.9-14,5.8-3.7,3.7-5.8,8.7-5.8,14s2.1,10.3,5.8,14c0,0,0,0,0,0,13.7,15,29.4,31.1,33.6,34,4.2-2.9,19.9-19.1,33.6-34,3.8-3.8,5.9-8.8,5.9-14.1s-2.1-10.3-5.8-14c-7.7-7.7-20.3-7.7-28.1,0-1.3,1.3-2.4,2.7-3.3,4.3-.5.8-1.3,1.4-2.3,1.4-.9,0-1.9-.4-2.4-1.2,0,0-.2-.3-.2-.3-.9-1.5-1.9-2.9-3.2-4.1-3.9-3.9-9-5.8-14-5.8Z"/>
    </g>
  </g>
</svg>